<svg xmlns="http://www.w3.org/2000/svg" xmlns:xlink="http://www.w3.org/1999/xlink" width="500" zoomAndPan="magnify" viewBox="0 0 375 374.999991" height="500" preserveAspectRatio="xMidYMid meet" version="1.0"><defs><g/></defs><rect x="-37.5" width="450" fill="#ffffff" y="-37.499999" height="449.999989" fill-opacity="1"/><rect x="-37.5" width="450" fill="#ffffff" y="-37.499999" height="449.999989" fill-opacity="1"/><rect x="-37.5" width="450" fill="#00bf63" y="-37.499999" height="449.999989" fill-opacity="1"/><g fill="#ffffff" fill-opacity="1"><g transform="translate(62.648438, 279.749982)"><g><path d="M 229.203125 -182.21875 C 240.367188 -178.21875 245.953125 -172.882812 245.953125 -166.21875 C 245.953125 -164.050781 244.953125 -159.96875 242.953125 -153.96875 L 194.96875 -15.25 C 194.632812 -14.082031 194.050781 -12.664062 193.21875 -11 C 192.382812 -9.332031 190.175781 -7.125 186.59375 -4.375 C 183.007812 -1.625 178.757812 -0.25 173.84375 -0.25 C 168.925781 -0.25 164.675781 -1.625 161.09375 -4.375 C 157.507812 -7.125 155.132812 -9.832031 153.96875 -12.5 L 124.734375 -98.734375 C 106.234375 -44.078125 96.816406 -16.25 96.484375 -15.25 C 96.148438 -14.25 95.398438 -12.832031 94.234375 -11 C 93.066406 -9.164062 91.734375 -7.5 90.234375 -6 C 86.398438 -2.164062 81.816406 -0.25 76.484375 -0.25 C 71.148438 -0.25 66.773438 -1.5 63.359375 -4 C 59.941406 -6.5 57.648438 -9 56.484375 -11.5 L 54.734375 -15.25 L 6.5 -153.96875 C 4.664062 -159.46875 3.75 -163.550781 3.75 -166.21875 C 3.75 -172.882812 9.332031 -178.132812 20.5 -181.96875 C 25.332031 -183.632812 29.707031 -184.46875 33.625 -184.46875 C 37.539062 -184.46875 40.535156 -183.132812 42.609375 -180.46875 C 44.691406 -177.800781 46.566406 -173.71875 48.234375 -168.21875 L 75.734375 -84.734375 L 102.984375 -166.96875 C 105.316406 -173.96875 109.566406 -178.800781 115.734375 -181.46875 C 118.398438 -182.632812 121.851562 -183.21875 126.09375 -183.21875 C 130.34375 -183.21875 134.300781 -181.84375 137.96875 -179.09375 C 141.632812 -176.34375 143.96875 -173.632812 144.96875 -170.96875 L 173.71875 -84.234375 L 201.21875 -168.21875 C 202.550781 -172.050781 203.632812 -174.882812 204.46875 -176.71875 C 205.300781 -178.550781 206.835938 -180.34375 209.078125 -182.09375 C 211.328125 -183.84375 214.117188 -184.71875 217.453125 -184.71875 C 220.785156 -184.71875 224.703125 -183.882812 229.203125 -182.21875 Z M 229.203125 -182.21875 "/></g></g></g></svg>